<mxfile host="app.diagrams.net" modified="2022-08-27T04:49:02.705Z" agent="5.0 (iPad; CPU OS 15_6 like Mac OS X) AppleWebKit/605.1.15 (KHTML, like Gecko) CriOS/104.0.5112.99 Mobile/15E148 Safari/604.1" etag="BsWLH6pKW-gWVjTI-19I" version="20.2.7" type="github">
  <diagram id="_7Dfbz3EUjFL6eM74Pef" name="Page-1">
    <mxGraphModel dx="868" dy="730" grid="1" gridSize="10" guides="1" tooltips="1" connect="1" arrows="1" fold="1" page="1" pageScale="1" pageWidth="850" pageHeight="1100" math="0" shadow="0">
      <root>
        <mxCell id="0" />
        <mxCell id="1" parent="0" />
        <mxCell id="GfFxDOf_tTCWFlTfAi5V-1" value="" style="shape=process;whiteSpace=wrap;html=1;backgroundOutline=1;direction=south;" vertex="1" parent="1">
          <mxGeometry x="30" y="300" width="240" height="500" as="geometry" />
        </mxCell>
        <mxCell id="GfFxDOf_tTCWFlTfAi5V-4" value="" style="whiteSpace=wrap;html=1;" vertex="1" parent="1">
          <mxGeometry x="270" y="800" width="300" height="200" as="geometry" />
        </mxCell>
        <mxCell id="GfFxDOf_tTCWFlTfAi5V-5" value="" style="whiteSpace=wrap;html=1;aspect=fixed;" vertex="1" parent="1">
          <mxGeometry width="300" height="300" as="geometry" />
        </mxCell>
        <mxCell id="GfFxDOf_tTCWFlTfAi5V-10" value="" style="verticalLabelPosition=bottom;html=1;verticalAlign=top;align=center;shape=mxgraph.floorplan.doorLeft;aspect=fixed;direction=north;flipH=1;" vertex="1" parent="1">
          <mxGeometry x="270" y="251.76" width="30" height="28.24" as="geometry" />
        </mxCell>
        <mxCell id="GfFxDOf_tTCWFlTfAi5V-11" value="" style="shape=mxgraph.cisco.misc.car;html=1;pointerEvents=1;dashed=0;fillColor=#036897;strokeColor=#ffffff;strokeWidth=2;verticalLabelPosition=bottom;verticalAlign=top;align=center;outlineConnect=0;direction=north;" vertex="1" parent="1">
          <mxGeometry x="180" y="125" width="60" height="155" as="geometry" />
        </mxCell>
        <mxCell id="GfFxDOf_tTCWFlTfAi5V-12" value="" style="shape=mxgraph.cisco.misc.car;html=1;pointerEvents=1;dashed=0;fillColor=#036897;strokeColor=#ffffff;strokeWidth=2;verticalLabelPosition=bottom;verticalAlign=top;align=center;outlineConnect=0;direction=north;" vertex="1" parent="1">
          <mxGeometry x="60" y="85" width="70" height="195" as="geometry" />
        </mxCell>
        <mxCell id="GfFxDOf_tTCWFlTfAi5V-13" value="" style="whiteSpace=wrap;html=1;" vertex="1" parent="1">
          <mxGeometry x="300" width="250" height="200" as="geometry" />
        </mxCell>
        <mxCell id="GfFxDOf_tTCWFlTfAi5V-27" value="" style="verticalLabelPosition=bottom;html=1;verticalAlign=top;align=center;shape=mxgraph.floorplan.stairs;direction=north;fillColor=#f5f5f5;fontColor=#333333;strokeColor=#666666;" vertex="1" parent="1">
          <mxGeometry x="300" y="10" width="30" height="150" as="geometry" />
        </mxCell>
        <mxCell id="GfFxDOf_tTCWFlTfAi5V-29" value="" style="verticalLabelPosition=bottom;html=1;verticalAlign=top;align=center;shape=mxgraph.floorplan.doorRight;aspect=fixed;flipV=1;" vertex="1" parent="1">
          <mxGeometry x="300" y="168" width="30" height="31.88" as="geometry" />
        </mxCell>
        <mxCell id="GfFxDOf_tTCWFlTfAi5V-30" value="" style="rounded=0;whiteSpace=wrap;html=1;fillColor=#f5f5f5;fontColor=#333333;strokeColor=#666666;" vertex="1" parent="1">
          <mxGeometry x="300" width="30" height="30" as="geometry" />
        </mxCell>
        <mxCell id="GfFxDOf_tTCWFlTfAi5V-31" value="" style="verticalLabelPosition=bottom;html=1;verticalAlign=top;align=center;shape=mxgraph.floorplan.doorRight;aspect=fixed;flipV=0;direction=south;flipH=1;" vertex="1" parent="1">
          <mxGeometry x="330" width="31.88" height="30" as="geometry" />
        </mxCell>
        <mxCell id="GfFxDOf_tTCWFlTfAi5V-32" value="" style="verticalLabelPosition=bottom;html=1;verticalAlign=top;align=center;shape=mxgraph.floorplan.doorRight;aspect=fixed;flipV=0;direction=south;flipH=0;" vertex="1" parent="1">
          <mxGeometry x="268" width="31.88" height="30" as="geometry" />
        </mxCell>
        <mxCell id="GfFxDOf_tTCWFlTfAi5V-34" value="" style="rounded=0;whiteSpace=wrap;html=1;" vertex="1" parent="1">
          <mxGeometry x="1000" y="-0.12000000000000455" width="100" height="200" as="geometry" />
        </mxCell>
        <mxCell id="GfFxDOf_tTCWFlTfAi5V-38" value="" style="group" vertex="1" connectable="0" parent="1">
          <mxGeometry x="600" y="35" width="360" height="165" as="geometry" />
        </mxCell>
        <mxCell id="GfFxDOf_tTCWFlTfAi5V-6" value="" style="rounded=1;whiteSpace=wrap;html=1;fillColor=#dae8fc;strokeColor=#6c8ebf;" vertex="1" parent="GfFxDOf_tTCWFlTfAi5V-38">
          <mxGeometry width="350" height="150" as="geometry" />
        </mxCell>
        <mxCell id="GfFxDOf_tTCWFlTfAi5V-7" value="" style="rounded=1;whiteSpace=wrap;html=1;fillColor=#dae8fc;strokeColor=#6c8ebf;" vertex="1" parent="GfFxDOf_tTCWFlTfAi5V-38">
          <mxGeometry x="280" y="85" width="80" height="80" as="geometry" />
        </mxCell>
        <mxCell id="GfFxDOf_tTCWFlTfAi5V-40" value="" style="shape=image;html=1;verticalAlign=top;verticalLabelPosition=bottom;labelBackgroundColor=#ffffff;imageAspect=0;aspect=fixed;image=https://cdn1.iconfinder.com/data/icons/hawcons/32/699963-icon-7-soccer-court-128.png;opacity=50;" vertex="1" parent="1">
          <mxGeometry x="16" y="396" width="240" height="240" as="geometry" />
        </mxCell>
        <mxCell id="GfFxDOf_tTCWFlTfAi5V-22" value="" style="shape=image;html=1;verticalAlign=top;verticalLabelPosition=bottom;labelBackgroundColor=#ffffff;imageAspect=0;aspect=fixed;image=https://cdn1.iconfinder.com/data/icons/hawcons/32/700390-icon-20-basketball-hoop-128.png;direction=north;imageBackground=none;sketch=0;" vertex="1" parent="1">
          <mxGeometry y="480" width="80" height="80" as="geometry" />
        </mxCell>
        <mxCell id="GfFxDOf_tTCWFlTfAi5V-48" value="" style="shape=image;html=1;verticalAlign=top;verticalLabelPosition=bottom;labelBackgroundColor=#ffffff;imageAspect=0;aspect=fixed;image=https://cdn0.iconfinder.com/data/icons/phosphor-thin-vol-5/256/wall-thin-128.png;sketch=0;opacity=50;" vertex="1" parent="1">
          <mxGeometry x="-0.11999999999999922" y="750" width="300" height="300" as="geometry" />
        </mxCell>
        <mxCell id="GfFxDOf_tTCWFlTfAi5V-49" value="" style="rounded=0;whiteSpace=wrap;html=1;sketch=0;opacity=50;" vertex="1" parent="1">
          <mxGeometry x="520" y="270" width="500" height="200" as="geometry" />
        </mxCell>
        <mxCell id="GfFxDOf_tTCWFlTfAi5V-37" value="" style="rounded=0;whiteSpace=wrap;html=1;" vertex="1" parent="1">
          <mxGeometry x="570" y="400" width="400" height="600" as="geometry" />
        </mxCell>
      </root>
    </mxGraphModel>
  </diagram>
</mxfile>
